<svg id="visual" viewBox="0 0 900 600" width="900" height="600" xmlns="http://www.w3.org/2000/svg" xmlns:xlink="http://www.w3.org/1999/xlink" version="1.1"><path d="M0 169L82 169L82 151L164 151L164 187L245 187L245 151L327 151L327 235L409 235L409 109L491 109L491 139L573 139L573 193L655 193L655 169L736 169L736 241L818 241L818 127L900 127L900 169L900 0L900 0L818 0L818 0L736 0L736 0L655 0L655 0L573 0L573 0L491 0L491 0L409 0L409 0L327 0L327 0L245 0L245 0L164 0L164 0L82 0L82 0L0 0Z" fill="#297ea6"></path><path d="M0 295L82 295L82 349L164 349L164 385L245 385L245 313L327 313L327 337L409 337L409 307L491 307L491 355L573 355L573 421L655 421L655 391L736 391L736 367L818 367L818 409L900 409L900 343L900 167L900 125L818 125L818 239L736 239L736 167L655 167L655 191L573 191L573 137L491 137L491 107L409 107L409 233L327 233L327 149L245 149L245 185L164 185L164 149L82 149L82 167L0 167Z" fill="#1f6285"></path><path d="M0 403L82 403L82 493L164 493L164 457L245 457L245 397L327 397L327 439L409 439L409 445L491 445L491 415L573 415L573 487L655 487L655 475L736 475L736 421L818 421L818 463L900 463L900 415L900 341L900 407L818 407L818 365L736 365L736 389L655 389L655 419L573 419L573 353L491 353L491 305L409 305L409 335L327 335L327 311L245 311L245 383L164 383L164 347L82 347L82 293L0 293Z" fill="#144765"></path><path d="M0 487L82 487L82 541L164 541L164 529L245 529L245 499L327 499L327 517L409 517L409 547L491 547L491 487L573 487L573 547L655 547L655 529L736 529L736 475L818 475L818 523L900 523L900 487L900 413L900 461L818 461L818 419L736 419L736 473L655 473L655 485L573 485L573 413L491 413L491 443L409 443L409 437L327 437L327 395L245 395L245 455L164 455L164 491L82 491L82 401L0 401Z" fill="#082e46"></path><path d="M0 601L82 601L82 601L164 601L164 601L245 601L245 601L327 601L327 601L409 601L409 601L491 601L491 601L573 601L573 601L655 601L655 601L736 601L736 601L818 601L818 601L900 601L900 601L900 485L900 521L818 521L818 473L736 473L736 527L655 527L655 545L573 545L573 485L491 485L491 545L409 545L409 515L327 515L327 497L245 497L245 527L164 527L164 539L82 539L82 485L0 485Z" fill="#001829"></path></svg>